<?xml version="1.0" encoding="UTF-8"?>
<svg xmlns="http://www.w3.org/2000/svg" version="1.1" viewBox="0 0 216 144">
  <defs>
    <style>
      .cls-1 {
        fill: #fff;
      }

      .cls-2 {
        fill: #ee3061;
      }
    </style>
  </defs>
  <!-- Generator: Adobe Illustrator 28.6.0, SVG Export Plug-In . SVG Version: 1.2.0 Build 709)  -->
  <g>
    <g id="Layer_1">
      <g>
        <g>
          <path class="cls-1" d="M73.16,79.14v-16.34h9.26c3.24,0,4.78,2.11,4.78,4.17s-1.25,3.41-2.79,3.75c1.74.27,3.11,1.94,3.11,3.99,0,2.38-1.59,4.44-4.8,4.44h-9.56ZM77.37,69.12h4.09c.86,0,1.45-.61,1.45-1.42s-.59-1.4-1.45-1.4h-4.09v2.82ZM77.37,75.64h4.24c1,0,1.62-.61,1.62-1.5,0-.83-.59-1.54-1.62-1.54h-4.24v3.04Z"/>
          <path class="cls-1" d="M95.23,67.01c3.5,0,6.05,2.57,6.05,6.59v.81h-8.43c.22,1.1,1.25,2.11,3.01,2.11,1.05,0,2.23-.42,2.89-1l1.59,2.35c-1.18,1.05-3.14,1.57-4.95,1.57-3.65,0-6.47-2.38-6.47-6.22,0-3.43,2.6-6.2,6.3-6.2ZM92.81,71.96h4.88c-.1-.83-.71-2.03-2.45-2.03-1.64,0-2.28,1.18-2.43,2.03Z"/>
          <path class="cls-1" d="M103.44,80.39c.27.15.64.22.93.22.86,0,1.4-.17,1.59-.66l.27-.64-4.71-12.01h3.97l2.67,7.5,2.7-7.5h3.99l-5.34,13.53c-.96,2.5-2.75,3.06-5,3.11-.34,0-1.23-.07-1.62-.2l.54-3.36Z"/>
          <path class="cls-1" d="M122.97,79.14v-1.18c-.74.88-2.16,1.47-3.68,1.47-1.81,0-4.07-1.22-4.07-3.9,0-2.87,2.25-3.72,4.07-3.72,1.57,0,2.96.49,3.68,1.37v-1.49c0-1.03-.88-1.72-2.4-1.72-1.18,0-2.4.44-3.36,1.25l-1.35-2.38c1.52-1.3,3.55-1.84,5.37-1.84,2.84,0,5.51,1.05,5.51,4.73v7.4h-3.77ZM122.97,75.05c-.39-.54-1.27-.83-2.11-.83-1,0-1.89.44-1.89,1.37s.88,1.37,1.89,1.37c.83,0,1.72-.29,2.11-.86v-1.05Z"/>
          <path class="cls-1" d="M137.5,79.14v-6.84c0-1.45-.76-1.96-1.94-1.96s-1.86.61-2.3,1.15v7.65h-3.77v-11.84h3.77v1.45c.71-.83,2.11-1.74,4.09-1.74,2.7,0,3.92,1.57,3.92,3.75v8.38h-3.77Z"/>
          <path class="cls-1" d="M149.7,67.01c2.55,0,4.14,1.13,4.85,2.18l-2.45,2.28c-.47-.69-1.22-1.13-2.23-1.13-1.57,0-2.77,1.08-2.77,2.87s1.2,2.89,2.77,2.89c1,0,1.76-.49,2.23-1.15l2.45,2.3c-.71,1.03-2.3,2.18-4.85,2.18-3.7,0-6.47-2.5-6.47-6.22s2.77-6.2,6.47-6.2Z"/>
          <path class="cls-1" d="M155.48,73.21c0-3.33,2.43-6.2,6.45-6.2s6.47,2.87,6.47,6.2-2.4,6.22-6.47,6.22-6.45-2.89-6.45-6.22ZM164.52,73.21c0-1.57-.93-2.87-2.6-2.87s-2.55,1.3-2.55,2.87.91,2.89,2.55,2.89,2.6-1.3,2.6-2.89Z"/>
        </g>
        <g>
          <polygon class="cls-2" points="48.66 67.75 48.66 77.87 47 78.27 47 67.67 48.66 67.75"/>
          <polygon class="cls-2" points="53.45 63.47 53.45 79.37 50.78 80.24 50.78 62.95 53.45 63.47"/>
          <polygon class="cls-2" points="60.45 57.33 60.45 81.58 56.9 83.43 56.9 55.47 60.45 57.33"/>
          <polygon class="cls-2" points="65.19 63.41 65.19 79.12 62.88 80.24 62.97 62.69 65.19 63.41"/>
          <polygon class="cls-2" points="68.28 67.82 68.28 77.45 66.84 78.27 66.84 67.67 68.28 67.82"/>
        </g>
      </g>
    </g>
  </g>
</svg>